<svg xmlns="http://www.w3.org/2000/svg" xmlns:xlink="http://www.w3.org/1999/xlink" width="180" zoomAndPan="magnify" viewBox="0 0 135 44.999999" height="60" preserveAspectRatio="xMidYMid meet" version="1.0"><defs><g/><clipPath id="c000cb0d33"><path d="M 108.75 34.46875 L 116.28125 34.46875 L 116.28125 42 L 108.75 42 Z M 108.75 34.46875 " clip-rule="nonzero"/></clipPath><clipPath id="f593777008"><path d="M 112.515625 34.46875 C 110.433594 34.46875 108.75 36.15625 108.75 38.234375 C 108.75 40.3125 110.433594 42 112.515625 42 C 114.59375 42 116.28125 40.3125 116.28125 38.234375 C 116.28125 36.15625 114.59375 34.46875 112.515625 34.46875 Z M 112.515625 34.46875 " clip-rule="nonzero"/></clipPath></defs><g fill="#000000" fill-opacity="1"><g transform="translate(21.270337, 38.297792)"><g><path d="M 1.75 0 L 1.75 -39.625 L 9.6875 -39.625 L 9.6875 -6.734375 L 17.84375 -6.734375 L 17.84375 0 Z M 1.75 0 "/></g></g></g><g fill="#000000" fill-opacity="1"><g transform="translate(37.045171, 38.297792)"><g><path d="M 11.4375 0.375 C 4.707031 0.375 1.34375 -3.113281 1.34375 -10.09375 L 1.34375 -23.65625 C 1.34375 -26.851562 2.238281 -29.394531 4.03125 -31.28125 C 5.832031 -33.175781 8.300781 -34.125 11.4375 -34.125 C 14.570312 -34.125 17.039062 -33.175781 18.84375 -31.28125 C 20.644531 -29.394531 21.546875 -26.851562 21.546875 -23.65625 L 21.546875 -10.09375 C 21.546875 -3.113281 18.175781 0.375 11.4375 0.375 Z M 11.4375 -5.859375 C 12.082031 -5.859375 12.554688 -6.085938 12.859375 -6.546875 C 13.171875 -7.003906 13.328125 -7.632812 13.328125 -8.4375 L 13.328125 -24.953125 C 13.328125 -26.921875 12.695312 -27.90625 11.4375 -27.90625 C 10.175781 -27.90625 9.546875 -26.921875 9.546875 -24.953125 L 9.546875 -8.4375 C 9.546875 -7.632812 9.695312 -7.003906 10 -6.546875 C 10.3125 -6.085938 10.789062 -5.859375 11.4375 -5.859375 Z M 11.4375 -5.859375 "/></g></g></g><g fill="#000000" fill-opacity="1"><g transform="translate(57.432485, 38.297792)"><g><path d="M 11.765625 0.375 C 8.078125 0.375 5.414062 -0.5625 3.78125 -2.4375 C 2.15625 -4.320312 1.34375 -7.195312 1.34375 -11.0625 L 1.34375 -21.5 C 1.34375 -24.414062 1.65625 -26.785156 2.28125 -28.609375 C 2.914062 -30.441406 3.976562 -31.816406 5.46875 -32.734375 C 6.957031 -33.660156 9.023438 -34.125 11.671875 -34.125 C 14.554688 -34.125 16.90625 -33.367188 18.71875 -31.859375 C 20.539062 -30.359375 21.453125 -28.253906 21.453125 -25.546875 L 21.453125 -20.390625 L 13.234375 -20.390625 L 13.234375 -25.140625 C 13.234375 -26.023438 13.109375 -26.707031 12.859375 -27.1875 C 12.617188 -27.664062 12.144531 -27.90625 11.4375 -27.90625 C 10.113281 -27.90625 9.453125 -26.96875 9.453125 -25.09375 L 9.453125 -8.71875 C 9.453125 -7.945312 9.613281 -7.289062 9.9375 -6.75 C 10.257812 -6.21875 10.742188 -5.953125 11.390625 -5.953125 C 12.035156 -5.953125 12.519531 -6.210938 12.84375 -6.734375 C 13.164062 -7.253906 13.3125 -7.929688 13.28125 -8.765625 L 13.234375 -14.4375 L 21.453125 -14.4375 L 21.453125 -8.53125 C 21.453125 -5.757812 20.550781 -3.582031 18.75 -2 C 16.945312 -0.414062 14.617188 0.375 11.765625 0.375 Z M 11.765625 0.375 "/></g></g></g><g fill="#000000" fill-opacity="1"><g transform="translate(77.543072, 38.297792)"><g><path d="M 7.75 0.375 C 5.132812 0.375 3.34375 -0.492188 2.375 -2.234375 C 1.40625 -3.972656 0.921875 -6.457031 0.921875 -9.6875 C 0.921875 -12.332031 1.265625 -14.359375 1.953125 -15.765625 C 2.648438 -17.179688 3.613281 -18.21875 4.84375 -18.875 C 6.070312 -19.539062 7.945312 -20.273438 10.46875 -21.078125 L 12.6875 -21.8125 L 12.6875 -25.28125 C 12.6875 -26.164062 12.507812 -26.847656 12.15625 -27.328125 C 11.800781 -27.804688 11.378906 -28.046875 10.890625 -28.046875 C 10.453125 -28.046875 10.070312 -27.84375 9.75 -27.4375 C 9.425781 -27.039062 9.265625 -26.503906 9.265625 -25.828125 L 9.265625 -23.796875 L 1.4375 -23.796875 L 1.4375 -24.90625 C 1.4375 -28.226562 2.210938 -30.59375 3.765625 -32 C 5.316406 -33.414062 7.84375 -34.125 11.34375 -34.125 C 14.144531 -34.125 16.421875 -33.394531 18.171875 -31.9375 C 19.921875 -30.476562 20.796875 -28.410156 20.796875 -25.734375 L 20.796875 0 L 12.78125 0 L 12.78125 -4.015625 C 12.375 -2.628906 11.734375 -1.550781 10.859375 -0.78125 C 9.984375 -0.0078125 8.945312 0.375 7.75 0.375 Z M 10.9375 -5.90625 C 11.550781 -5.90625 11.988281 -6.15625 12.25 -6.65625 C 12.507812 -7.164062 12.640625 -7.789062 12.640625 -8.53125 L 12.640625 -17.9375 C 11.441406 -17.476562 10.554688 -16.894531 9.984375 -16.1875 C 9.410156 -15.476562 9.125 -14.492188 9.125 -13.234375 L 9.125 -8.90625 C 9.125 -6.90625 9.726562 -5.90625 10.9375 -5.90625 Z M 10.9375 -5.90625 "/></g></g></g><g fill="#000000" fill-opacity="1"><g transform="translate(97.284635, 38.297792)"><g><path d="M 1.609375 0 L 1.609375 -39.859375 L 9.828125 -39.859375 L 9.828125 0 Z M 1.609375 0 "/></g></g></g><g clip-path="url(#c000cb0d33)"><g clip-path="url(#f593777008)"><path fill="#ffde59" d="M 108.75 34.46875 L 116.28125 34.46875 L 116.28125 42 L 108.75 42 Z M 108.75 34.46875 " fill-opacity="1" fill-rule="nonzero"/></g></g></svg>